<?xml version="1.0" encoding="UTF-8"?>
<svg width="288px" height="44px" viewBox="0 0 288 44" version="1.1" xmlns="http://www.w3.org/2000/svg" xmlns:xlink="http://www.w3.org/1999/xlink">
    <!-- Generator: Sketch 58 (84663) - https://sketch.com -->
    <title>Save to Google Pay - Russian (Dark)</title>
    <desc>Created with Sketch.</desc>
    <defs>
        <path d="M4,0 L276,0 C278.209139,-4.05812251e-16 280,1.790861 280,4 L280,32 C280,34.209139 278.209139,36 276,36 L4,36 C1.790861,36 2.705415e-16,34.209139 0,32 L0,4 C-2.705415e-16,1.790861 1.790861,4.05812251e-16 4,0 Z" id="path-1"></path>
        <filter x="-2.3%" y="-15.3%" width="104.6%" height="136.1%" filterUnits="objectBoundingBox" id="filter-2">
            <feMorphology radius="0.5" operator="dilate" in="SourceAlpha" result="shadowSpreadOuter1"></feMorphology>
            <feOffset dx="0" dy="1" in="shadowSpreadOuter1" result="shadowOffsetOuter1"></feOffset>
            <feGaussianBlur stdDeviation="1.5" in="shadowOffsetOuter1" result="shadowBlurOuter1"></feGaussianBlur>
            <feColorMatrix values="0 0 0 0 0.235294118   0 0 0 0 0.250980392   0 0 0 0 0.262745098  0 0 0 0.15 0" type="matrix" in="shadowBlurOuter1" result="shadowMatrixOuter1"></feColorMatrix>
            <feOffset dx="0" dy="1" in="SourceAlpha" result="shadowOffsetOuter2"></feOffset>
            <feGaussianBlur stdDeviation="0.5" in="shadowOffsetOuter2" result="shadowBlurOuter2"></feGaussianBlur>
            <feColorMatrix values="0 0 0 0 0.235294118   0 0 0 0 0.250980392   0 0 0 0 0.262745098  0 0 0 0.3 0" type="matrix" in="shadowBlurOuter2" result="shadowMatrixOuter2"></feColorMatrix>
            <feMerge>
                <feMergeNode in="shadowMatrixOuter1"></feMergeNode>
                <feMergeNode in="shadowMatrixOuter2"></feMergeNode>
            </feMerge>
        </filter>
    </defs>
    <g id="Buttons-(Save-to-phone)" stroke="none" stroke-width="1" fill="none" fill-rule="evenodd">
        <g id="Language-Variations-Copy" transform="translate(-192.000000, -1003.000000)">
            <g id="Save-to-Google-Pay---Russian-(Dark)" transform="translate(196.000000, 1006.000000)">
                <g id="bg-copy-16">
                    <use fill="black" fill-opacity="1" filter="url(#filter-2)" xlink:href="#path-1"></use>
                    <use fill="#000000" fill-rule="evenodd" xlink:href="#path-1"></use>
                </g>
                <g id="buttonContent" transform="translate(31.000000, 10.000000)">
                    <rect id="Rectangle" fill="#3C4043" x="50" y="0" width="1" height="16"></rect>
                    <g id="Gpay-logo-18px-h-Copy-15">
                        <g id="GPay" transform="translate(0.000000, 0.261474)">
                            <g id="Pay" transform="translate(17.615069, 0.825706)" fill="#FFFFFF">
                                <path d="M1.64941186,1.54761702 L1.64941186,5.63067176 L4.1674047,5.63067176 C4.76721599,5.63067176 5.26322816,5.42908551 5.65562807,5.02591302 C6.05830511,4.6236738 6.26011078,4.1439732 6.26011078,3.58867775 C6.26011078,3.04458155 6.05830511,2.57048056 5.65562807,2.16730807 C5.26322816,1.75386962 4.76721599,1.54668375 4.1674047,1.54668375 L1.64941186,1.54668375 L1.64941186,1.54761702 Z M1.64941186,7.06790702 L1.64941186,11.8042505 L0.145212207,11.8042505 L0.145212207,0.110381756 L4.13461128,0.110381756 C5.14840447,0.110381756 6.00888141,0.448225371 6.71791067,1.12297933 C7.43740394,1.79773329 7.79701042,2.61994385 7.79701042,3.58867775 C7.79701042,4.57981013 7.43731051,5.40762031 6.71791067,6.07117503 C6.01999941,6.73566302 5.15858818,7.06697375 4.13461128,7.06697375 L1.64941186,7.06697375 L1.64941186,7.06790702 Z" id="Fill-1"></path>
                                <path d="M9.31707424,9.35440834 C9.31707424,9.74638159 9.48337706,10.073026 9.81607612,10.3343415 C10.1485883,10.595657 10.5381854,10.7263147 10.9848673,10.7263147 C11.6172851,10.7263147 12.1806593,10.4919707 12.6767649,10.024496 C13.1729639,9.55599458 13.4204561,9.00629876 13.4204561,8.37540847 C12.9514448,8.00490042 12.297445,7.82011303 11.4584566,7.82011303 C10.8475273,7.82011303 10.3383417,7.96756963 9.93005895,8.26154958 C9.52168276,8.55543619 9.31707424,8.91857141 9.31707424,9.35440834 M11.2631909,3.5401384 C12.3749907,3.5401384 13.2522848,3.83691815 13.8961009,4.43047765 C14.5388893,5.02403715 14.8601901,5.83784829 14.8601901,6.87191106 L14.8601901,11.8042412 L13.4214839,11.8042412 L13.4214839,10.6936503 L13.3559904,10.6936503 C12.7346906,11.6081612 11.9059794,12.0655567 10.8708844,12.0655567 C9.98798466,12.0655567 9.24896483,11.8042412 8.65560011,11.2816102 C8.06148796,10.7589792 7.76438517,10.1056904 7.76438517,9.3217439 C7.76438517,8.49393372 8.07727739,7.83588529 8.70418295,7.34601205 C9.33108852,6.85604548 10.1673675,6.61059556 11.2137672,6.61059556 C12.1068507,6.61059556 12.8430677,6.77391775 13.4204561,7.10056213 L13.4204561,6.75711889 C13.4204561,6.23448789 13.2130448,5.7911848 12.7992497,5.42627637 C12.3843335,5.06136793 11.9003736,4.87938035 11.3444738,4.87938035 C10.5045511,4.87938035 9.84036755,5.23308955 9.34986766,5.94144122 L8.0249574,5.10803142 C8.75556866,4.06276941 9.83466841,3.5401384 11.2631909,3.5401384" id="Fill-3"></path>
                                <polygon id="Fill-5" points="23.1164897 3.8014539 18.0966672 15.3320005 16.5437912 15.3320005 18.4077842 11.2974758 15.1049916 3.8014539 16.7399912 3.8014539 19.1270906 9.55039497 19.1597906 9.55039497 21.4814901 3.8014539"></polygon>
                            </g>
                            <g id="G">
                                <path d="M13.1865148,6.87260706 C13.1865148,6.39943935 13.1463406,5.94307048 13.0706634,5.50630029 L6.72686492,5.50630029 L6.72686492,8.09425704 L10.3603012,8.09425704 C10.2042755,8.93783948 9.73246136,9.65561717 9.01679867,10.136251 L9.01679867,11.8170697 L11.1852753,11.8170697 C12.4549693,10.6467495 13.1865148,8.91740087 13.1865148,6.87260706" id="Fill-8" fill="#4285F4"></path>
                                <path d="M6.72685557,13.439083 C8.54217229,13.439083 10.0706634,12.843657 11.185266,11.8170603 L9.01678933,10.1362417 C8.4132409,10.542214 7.63591536,10.7792645 6.72685557,10.7792645 C4.97226741,10.7792645 3.48301633,9.59774511 2.9504736,8.00558709 L0.716596976,8.00558709 L0.716596976,9.73680229 C1.82372529,11.9318525 4.09871047,13.439083 6.72685557,13.439083" id="Fill-10" fill="#34A853"></path>
                                <path d="M2.95048294,8.00556842 C2.81407726,7.59959612 2.73933442,7.166559 2.73933442,6.71952284 C2.73933442,6.27248667 2.81407726,5.83944956 2.95048294,5.43347726 L2.95048294,3.70226205 L0.716606319,3.70226205 C0.258806425,4.60940015 9.34285496e-06,5.63413023 9.34285496e-06,6.71952284 C9.34285496e-06,7.80491544 0.258806425,8.82973885 0.716606319,9.73678363 L2.95048294,8.00556842 Z" id="Fill-12" fill="#FABB05"></path>
                                <path d="M6.72685557,2.65981851 C7.71813249,2.65981851 8.60663799,3.00046194 9.30735212,3.66774974 L9.30735212,3.66868301 L11.2273088,1.75081387 C10.0613205,0.666354532 8.54123801,0 6.72685557,0 C4.09871047,0 1.82372529,1.50723049 0.716596976,3.70228071 L2.9504736,5.43349592 C3.48301633,3.84133789 4.97226741,2.65981851 6.72685557,2.65981851" id="Fill-14" fill="#E94235"></path>
                            </g>
                        </g>
                    </g>
                    <path d="M65.38,13.224 C64.4093285,13.224 63.5226707,12.9953356 62.72,12.538 C61.9173293,12.0806644 61.2873356,11.4506707 60.83,10.648 C60.3726644,9.84532932 60.144,8.95867152 60.144,7.988 C60.144,7.01732848 60.3726644,6.13067068 60.83,5.328 C61.2873356,4.52532932 61.9173293,3.89533562 62.72,3.438 C63.5226707,2.98066438 64.4093285,2.752 65.38,2.752 C66.1360038,2.752 66.8243302,2.8919986 67.445,3.172 C68.0656698,3.4520014 68.6139976,3.85799734 69.09,4.39 L67.97,5.468 C67.6246649,5.05733128 67.2420021,4.75166767 66.822,4.551 C66.4019979,4.35033233 65.921336,4.25 65.38,4.25 C64.7079966,4.25 64.0943361,4.40399846 63.539,4.712 C62.9836639,5.02000154 62.5426683,5.45633051 62.216,6.021 C61.8893317,6.58566949 61.726,7.2413296 61.726,7.988 C61.726,8.7346704 61.8893317,9.39033051 62.216,9.955 C62.5426683,10.5196695 62.9836639,10.9559985 63.539,11.264 C64.0943361,11.5720015 64.7079966,11.726 65.38,11.726 C66.5000056,11.726 67.4519961,11.259338 68.236,10.326 L69.37,11.418 C68.8846642,11.9873362 68.3013367,12.4306651 67.62,12.748 C66.9386633,13.0653349 66.1920041,13.224 65.38,13.224 Z M74.084,13.224 C73.3653297,13.224 72.7213362,13.058335 72.152,12.727 C71.5826638,12.395665 71.1393349,11.9406696 70.822,11.362 C70.5046651,10.7833304 70.346,10.1393369 70.346,9.43 C70.346,8.72066312 70.5046651,8.07666956 70.822,7.498 C71.1393349,6.91933044 71.5826638,6.46433499 72.152,6.133 C72.7213362,5.80166501 73.3653297,5.636 74.084,5.636 C74.8026703,5.636 75.4466638,5.80399832 76.016,6.14 C76.5853362,6.47600168 77.0286651,6.93333044 77.346,7.512 C77.6633349,8.09066956 77.822,8.7299965 77.822,9.43 C77.822,10.1393369 77.6633349,10.7833304 77.346,11.362 C77.0286651,11.9406696 76.5853362,12.395665 76.016,12.727 C75.4466638,13.058335 74.8026703,13.224 74.084,13.224 Z M74.084,11.81 C74.476002,11.81 74.8399983,11.7143343 75.176,11.523 C75.5120017,11.3316657 75.7803323,11.0563351 75.981,10.697 C76.1816677,10.3376649 76.282,9.91533576 76.282,9.43 C76.282,8.94466424 76.1816677,8.52466844 75.981,8.17 C75.7803323,7.81533156 75.5120017,7.54233429 75.176,7.351 C74.8399983,7.15966571 74.476002,7.064 74.084,7.064 C73.691998,7.064 73.3280017,7.15966571 72.992,7.351 C72.6559983,7.54233429 72.3876677,7.81533156 72.187,8.17 C71.9863323,8.52466844 71.886,8.94466424 71.886,9.43 C71.886,9.91533576 71.9863323,10.3376649 72.187,10.697 C72.3876677,11.0563351 72.6559983,11.3316657 72.992,11.523 C73.3280017,11.7143343 73.691998,11.81 74.084,11.81 Z M80.954,9.374 L78.49,5.86 L80.282,5.86 L81.864,8.184 L81.906,8.184 L83.418,5.86 L85.266,5.86 L82.774,9.374 L85.294,13 L83.474,13 L81.878,10.592 L81.836,10.592 L80.282,13 L78.462,13 L80.954,9.374 Z M86.466,5.86 L87.936,5.86 L87.936,6.798 L88.006,6.798 C88.2113344,6.4713317 88.5146647,6.19600112 88.916,5.972 C89.3173354,5.74799888 89.7699975,5.636 90.274,5.636 C90.9180032,5.636 91.5013307,5.7993317 92.024,6.126 C92.5466693,6.4526683 92.9596652,6.90299713 93.263,7.477 C93.5663349,8.05100287 93.718,8.70199636 93.718,9.43 C93.718,10.1580036 93.5663349,10.8089971 93.263,11.383 C92.9596652,11.9570029 92.5466693,12.4073317 92.024,12.734 C91.5013307,13.0606683 90.9180032,13.224 90.274,13.224 C89.7699975,13.224 89.3173354,13.1120011 88.916,12.888 C88.5146647,12.6639989 88.2113344,12.3933349 88.006,12.076 L87.936,12.076 L88.006,13.07 L88.006,16.024 L86.466,16.024 L86.466,5.86 Z M90.05,11.81 C90.4233352,11.81 90.7733317,11.712001 91.1,11.516 C91.4266683,11.319999 91.687999,11.0400018 91.884,10.676 C92.080001,10.3119982 92.178,9.896669 92.178,9.43 C92.178,8.963331 92.080001,8.55033513 91.884,8.191 C91.687999,7.83166487 91.4266683,7.55400098 91.1,7.358 C90.7733317,7.16199902 90.4233352,7.064 90.05,7.064 C89.6766648,7.064 89.3290016,7.16199902 89.007,7.358 C88.6849984,7.55400098 88.426001,7.83166487 88.23,8.191 C88.033999,8.55033513 87.936,8.963331 87.936,9.43 C87.936,9.896669 88.033999,10.3119982 88.23,10.676 C88.426001,11.0400018 88.6849984,11.319999 89.007,11.516 C89.3290016,11.712001 89.6766648,11.81 90.05,11.81 Z M97.508,13.224 C96.9946641,13.224 96.5373354,13.1236677 96.136,12.923 C95.7346647,12.7223323 95.4220011,12.4376685 95.198,12.069 C94.9739989,11.7003315 94.862,11.282669 94.862,10.816 C94.862,10.078663 95.1396639,9.49533548 95.695,9.066 C96.2503361,8.63666452 96.9526624,8.422 97.802,8.422 C98.2220021,8.422 98.5999983,8.46166627 98.936,8.541 C99.2720017,8.62033373 99.537999,8.7066662 99.734,8.8 L99.734,8.436 C99.734,7.99733114 99.5706683,7.64033471 99.244,7.365 C98.9173317,7.08966529 98.4973359,6.952 97.984,6.952 C97.6199982,6.952 97.2770016,7.03133254 96.955,7.19 C96.6329984,7.34866746 96.374001,7.5679986 96.178,7.848 L95.1,7.022 C95.4173349,6.58333114 95.8279975,6.24266788 96.332,6 C96.8360025,5.75733212 97.3959969,5.636 98.012,5.636 C99.0480052,5.636 99.8459972,5.89033079 100.406,6.399 C100.966003,6.90766921 101.246,7.62399538 101.246,8.548 L101.246,13 L99.734,13 L99.734,12.146 L99.664,12.146 C99.4586657,12.4540015 99.1693352,12.7106656 98.796,12.916 C98.4226648,13.1213344 97.9933358,13.224 97.508,13.224 Z M97.774,11.95 C98.1473352,11.95 98.4833319,11.8613342 98.782,11.684 C99.0806682,11.5066658 99.3139992,11.2686682 99.482,10.97 C99.6500009,10.6713318 99.734,10.3493351 99.734,10.004 C99.5193323,9.88266606 99.2696681,9.78466704 98.985,9.71 C98.7003319,9.63533296 98.4040016,9.598 98.096,9.598 C97.5173305,9.598 97.092668,9.71233219 96.822,9.941 C96.551332,10.1696678 96.416,10.4659982 96.416,10.83 C96.416,11.1566683 96.5419988,11.4249989 96.794,11.635 C97.0460013,11.8450011 97.3726647,11.95 97.774,11.95 Z M103.076,5.86 L104.616,5.86 L104.616,8.688 L108.06,8.688 L108.06,5.86 L109.6,5.86 L109.6,13 L108.06,13 L108.06,10.13 L104.616,10.13 L104.616,13 L103.076,13 L103.076,5.86 Z M111.542,5.86 L113.082,5.86 L113.082,9.346 L113.012,10.69 L113.082,10.69 L116.442,5.86 L117.982,5.86 L117.982,13 L116.442,13 L116.442,9.514 L116.512,8.17 L116.442,8.17 L113.082,13 L111.542,13 L111.542,5.86 Z M121.688,7.288 L119.42,7.288 L119.42,5.86 L125.51,5.86 L125.51,7.288 L123.228,7.288 L123.228,13 L121.688,13 L121.688,7.288 Z M126.948,5.86 L128.446,5.86 L128.446,8.282 L130.434,8.282 C130.919336,8.282 131.357998,8.37999902 131.75,8.576 C132.142002,8.77200098 132.449999,9.04966487 132.674,9.409 C132.898001,9.76833513 133.01,10.181331 133.01,10.648 C133.01,11.114669 132.898001,11.5253316 132.674,11.88 C132.449999,12.2346684 132.142002,12.509999 131.75,12.706 C131.357998,12.902001 130.919336,13 130.434,13 L126.948,13 L126.948,5.86 Z M130.378,11.698 C130.704668,11.698 130.977666,11.6023343 131.197,11.411 C131.416334,11.2196657 131.526,10.9653349 131.526,10.648 C131.526,10.3306651 131.416334,10.074001 131.197,9.878 C130.977666,9.68199902 130.704668,9.584 130.378,9.584 L128.446,9.584 L128.446,11.698 L130.378,11.698 Z M137.874,5.86 L139.414,5.86 L139.414,8.688 L142.858,8.688 L142.858,5.86 L144.398,5.86 L144.398,13 L142.858,13 L142.858,10.13 L139.414,10.13 L139.414,13 L137.874,13 L137.874,5.86 Z M148.51,13.224 C147.996664,13.224 147.539335,13.1236677 147.138,12.923 C146.736665,12.7223323 146.424001,12.4376685 146.2,12.069 C145.975999,11.7003315 145.864,11.282669 145.864,10.816 C145.864,10.078663 146.141664,9.49533548 146.697,9.066 C147.252336,8.63666452 147.954662,8.422 148.804,8.422 C149.224002,8.422 149.601998,8.46166627 149.938,8.541 C150.274002,8.62033373 150.539999,8.7066662 150.736,8.8 L150.736,8.436 C150.736,7.99733114 150.572668,7.64033471 150.246,7.365 C149.919332,7.08966529 149.499336,6.952 148.986,6.952 C148.621998,6.952 148.279002,7.03133254 147.957,7.19 C147.634998,7.34866746 147.376001,7.5679986 147.18,7.848 L146.102,7.022 C146.419335,6.58333114 146.829998,6.24266788 147.334,6 C147.838003,5.75733212 148.397997,5.636 149.014,5.636 C150.050005,5.636 150.847997,5.89033079 151.408,6.399 C151.968003,6.90766921 152.248,7.62399538 152.248,8.548 L152.248,13 L150.736,13 L150.736,12.146 L150.666,12.146 C150.460666,12.4540015 150.171335,12.7106656 149.798,12.916 C149.424665,13.1213344 148.995336,13.224 148.51,13.224 Z M148.776,11.95 C149.149335,11.95 149.485332,11.8613342 149.784,11.684 C150.082668,11.5066658 150.315999,11.2686682 150.484,10.97 C150.652001,10.6713318 150.736,10.3493351 150.736,10.004 C150.521332,9.88266606 150.271668,9.78466704 149.987,9.71 C149.702332,9.63533296 149.406002,9.598 149.098,9.598 C148.519331,9.598 148.094668,9.71233219 147.824,9.941 C147.553332,10.1696678 147.418,10.4659982 147.418,10.83 C147.418,11.1566683 147.543999,11.4249989 147.796,11.635 C148.048001,11.8450011 148.374665,11.95 148.776,11.95 Z M159.268,7.288 L157,7.288 L157,5.86 L163.09,5.86 L163.09,7.288 L160.808,7.288 L160.808,13 L159.268,13 L159.268,7.288 Z M167.65,13.224 C166.949997,13.224 166.322336,13.0606683 165.767,12.734 C165.211664,12.4073317 164.777668,11.9570029 164.465,11.383 C164.152332,10.8089971 163.996,10.1626703 163.996,9.444 C163.996,8.76266326 164.147665,8.13033625 164.451,7.547 C164.754335,6.96366375 165.176664,6.49933506 165.718,6.154 C166.259336,5.80866494 166.87533,5.636 167.566,5.636 C168.28467,5.636 168.907664,5.79466508 169.435,6.112 C169.962336,6.42933492 170.363665,6.86333058 170.639,7.414 C170.914335,7.96466942 171.052,8.58532988 171.052,9.276 C171.052,9.40666732 171.038,9.56999902 171.01,9.766 L165.536,9.766 C165.592,10.42867 165.827665,10.9396649 166.243,11.299 C166.658335,11.6583351 167.141331,11.838 167.692,11.838 C168.130669,11.838 168.510998,11.7376677 168.833,11.537 C169.155002,11.3363323 169.413999,11.0633351 169.61,10.718 L170.912,11.334 C170.575998,11.9220029 170.137336,12.3839983 169.596,12.72 C169.054664,13.0560017 168.406004,13.224 167.65,13.224 Z M169.484,8.59 C169.465333,8.33799874 169.386001,8.08833457 169.246,7.841 C169.106,7.59366543 168.893668,7.38600084 168.609,7.218 C168.324332,7.04999916 167.976669,6.966 167.566,6.966 C167.071331,6.966 166.653668,7.11299853 166.313,7.407 C165.972332,7.70100147 165.736667,8.09533086 165.606,8.59 L169.484,8.59 Z M172.854,13.112 C172.545999,13.112 172.298668,13.074667 172.112,13 L172.126,11.628 C172.275334,11.6746669 172.429333,11.698 172.588,11.698 C172.793334,11.698 172.952,11.630334 173.064,11.495 C173.176001,11.359666 173.255333,11.1333349 173.302,10.816 C173.348667,10.4986651 173.372,10.0506696 173.372,9.472 L173.372,5.86 L179.504,5.86 L179.504,13 L178.006,13 L178.006,7.26 L174.856,7.26 L174.856,9.906 C174.856,12.043344 174.188673,13.112 172.854,13.112 Z M184.652,13.224 C183.951997,13.224 183.324336,13.0606683 182.769,12.734 C182.213664,12.4073317 181.779668,11.9570029 181.467,11.383 C181.154332,10.8089971 180.998,10.1626703 180.998,9.444 C180.998,8.76266326 181.149665,8.13033625 181.453,7.547 C181.756335,6.96366375 182.178664,6.49933506 182.72,6.154 C183.261336,5.80866494 183.87733,5.636 184.568,5.636 C185.28667,5.636 185.909664,5.79466508 186.437,6.112 C186.964336,6.42933492 187.365665,6.86333058 187.641,7.414 C187.916335,7.96466942 188.054,8.58532988 188.054,9.276 C188.054,9.40666732 188.04,9.56999902 188.012,9.766 L182.538,9.766 C182.594,10.42867 182.829665,10.9396649 183.245,11.299 C183.660336,11.6583351 184.143331,11.838 184.694,11.838 C185.132669,11.838 185.512998,11.7376677 185.835,11.537 C186.157002,11.3363323 186.415999,11.0633351 186.612,10.718 L187.914,11.334 C187.577998,11.9220029 187.139336,12.3839983 186.598,12.72 C186.056664,13.0560017 185.408004,13.224 184.652,13.224 Z M186.486,8.59 C186.467333,8.33799874 186.388001,8.08833457 186.248,7.841 C186.108,7.59366543 185.895668,7.38600084 185.611,7.218 C185.326332,7.04999916 184.978669,6.966 184.568,6.966 C184.073331,6.966 183.655668,7.11299853 183.315,7.407 C182.974332,7.70100147 182.738667,8.09533086 182.608,8.59 L186.486,8.59 Z M199.138,9.43 C199.138,10.1300035 198.965335,10.7483306 198.62,11.285 C198.274665,11.8216694 197.794003,12.2509984 197.178,12.573 C196.561997,12.8950016 195.852671,13.0979996 195.05,13.182 L195.05,16.024 L193.51,16.024 L193.51,13.182 C192.287327,13.0606661 191.300337,12.66867 190.549,12.006 C189.797663,11.34333 189.422,10.4846719 189.422,9.43 C189.422,8.7299965 189.594665,8.11166935 189.94,7.575 C190.285335,7.03833065 190.765997,6.60900161 191.382,6.287 C191.998003,5.96499839 192.707329,5.76200042 193.51,5.678 L193.51,2.976 L195.05,2.976 L195.05,5.678 C195.852671,5.76200042 196.561997,5.96499839 197.178,6.287 C197.794003,6.60900161 198.274665,7.03833065 198.62,7.575 C198.965335,8.11166935 199.138,8.7299965 199.138,9.43 Z M190.906,9.43 C190.906,10.0833366 191.136998,10.6153313 191.599,11.026 C192.061002,11.4366687 192.697996,11.6933328 193.51,11.796 L193.51,7.064 C192.697996,7.16666718 192.061002,7.42566459 191.599,7.841 C191.136998,8.25633541 190.906,8.78599678 190.906,9.43 Z M195.05,11.796 C195.852671,11.6933328 196.487331,11.4343354 196.954,11.019 C197.420669,10.6036646 197.654,10.0740032 197.654,9.43 C197.654,8.78599678 197.420669,8.25633541 196.954,7.841 C196.487331,7.42566459 195.852671,7.16666718 195.05,7.064 L195.05,11.796 Z M204.174,13.224 C203.45533,13.224 202.811336,13.058335 202.242,12.727 C201.672664,12.395665 201.229335,11.9406696 200.912,11.362 C200.594665,10.7833304 200.436,10.1393369 200.436,9.43 C200.436,8.72066312 200.594665,8.07666956 200.912,7.498 C201.229335,6.91933044 201.672664,6.46433499 202.242,6.133 C202.811336,5.80166501 203.45533,5.636 204.174,5.636 C204.89267,5.636 205.536664,5.80399832 206.106,6.14 C206.675336,6.47600168 207.118665,6.93333044 207.436,7.512 C207.753335,8.09066956 207.912,8.7299965 207.912,9.43 C207.912,10.1393369 207.753335,10.7833304 207.436,11.362 C207.118665,11.9406696 206.675336,12.395665 206.106,12.727 C205.536664,13.058335 204.89267,13.224 204.174,13.224 Z M204.174,11.81 C204.566002,11.81 204.929998,11.7143343 205.266,11.523 C205.602002,11.3316657 205.870332,11.0563351 206.071,10.697 C206.271668,10.3376649 206.372,9.91533576 206.372,9.43 C206.372,8.94466424 206.271668,8.52466844 206.071,8.17 C205.870332,7.81533156 205.602002,7.54233429 205.266,7.351 C204.929998,7.15966571 204.566002,7.064 204.174,7.064 C203.781998,7.064 203.418002,7.15966571 203.082,7.351 C202.745998,7.54233429 202.477668,7.81533156 202.277,8.17 C202.076332,8.52466844 201.976,8.94466424 201.976,9.43 C201.976,9.91533576 202.076332,10.3376649 202.277,10.697 C202.477668,11.0563351 202.745998,11.3316657 203.082,11.523 C203.418002,11.7143343 203.781998,11.81 204.174,11.81 Z M209.336,5.86 L210.876,5.86 L210.876,8.688 L214.32,8.688 L214.32,5.86 L215.86,5.86 L215.86,13 L214.32,13 L214.32,10.13 L210.876,10.13 L210.876,13 L209.336,13 L209.336,5.86 Z M220.994,13.224 C220.293997,13.224 219.666336,13.0606683 219.111,12.734 C218.555664,12.4073317 218.121668,11.9570029 217.809,11.383 C217.496332,10.8089971 217.34,10.1626703 217.34,9.444 C217.34,8.76266326 217.491665,8.13033625 217.795,7.547 C218.098335,6.96366375 218.520664,6.49933506 219.062,6.154 C219.603336,5.80866494 220.21933,5.636 220.91,5.636 C221.62867,5.636 222.251664,5.79466508 222.779,6.112 C223.306336,6.42933492 223.707665,6.86333058 223.983,7.414 C224.258335,7.96466942 224.396,8.58532988 224.396,9.276 C224.396,9.40666732 224.382,9.56999902 224.354,9.766 L218.88,9.766 C218.936,10.42867 219.171665,10.9396649 219.587,11.299 C220.002336,11.6583351 220.485331,11.838 221.036,11.838 C221.474669,11.838 221.854999,11.7376677 222.177,11.537 C222.499002,11.3363323 222.757999,11.0633351 222.954,10.718 L224.256,11.334 C223.919998,11.9220029 223.481336,12.3839983 222.94,12.72 C222.398664,13.0560017 221.750004,13.224 220.994,13.224 Z M222.828,8.59 C222.809333,8.33799874 222.730001,8.08833457 222.59,7.841 C222.45,7.59366543 222.237668,7.38600084 221.953,7.218 C221.668332,7.04999916 221.320669,6.966 220.91,6.966 C220.415331,6.966 219.997668,7.11299853 219.657,7.407 C219.316332,7.70100147 219.080667,8.09533086 218.95,8.59 L222.828,8.59 Z" id="Сохранитьнателефонее" fill="#FFFFFF" fill-rule="nonzero"></path>
                </g>
            </g>
        </g>
    </g>
</svg>