<svg width="417" height="79" viewBox="0 0 417 79" fill="none" xmlns="http://www.w3.org/2000/svg">
<path d="M130.757 59.4605L128.785 53.288H114.132L112.159 59.4605H102.297L115.71 20.1811H127.207L140.62 59.4605H130.757ZM116.837 44.871H126.08L121.458 30.4499L116.837 44.871Z" fill="white"/>
<path d="M155.255 20.1811H164.272V59.4605H155.255V20.1811Z" fill="white"/>
<path d="M201.146 60.2461C195.247 60.2461 190.344 58.3008 186.436 54.4103C182.566 50.4824 180.631 45.6192 180.631 39.8208C180.631 34.0224 182.566 29.178 186.436 25.2874C190.344 21.3595 195.247 19.3955 201.146 19.3955C204.677 19.3955 207.946 20.2185 210.952 21.8645C213.957 23.4731 216.324 25.6802 218.053 28.4859L210.275 32.975C209.411 31.4412 208.171 30.2628 206.556 29.4398C204.94 28.5794 203.137 28.1492 201.146 28.1492C197.651 28.1492 194.852 29.2154 192.748 31.3477C190.682 33.48 189.649 36.3044 189.649 39.8208C189.649 43.3373 190.682 46.1616 192.748 48.2939C194.852 50.4263 197.651 51.4924 201.146 51.4924C203.137 51.4924 204.94 51.0622 206.556 50.2018C208.209 49.3414 209.449 48.163 210.275 46.6667L218.053 51.1557C216.362 53.9614 214.014 56.1872 211.008 57.8332C208.002 59.4418 204.715 60.2461 201.146 60.2461Z" fill="white"/>
<path d="M254.966 20.1811H263.983V59.4605H254.966V43.861H242.567V59.4605H233.55V20.1811H242.567V35.2195H254.966V20.1811Z" fill="white"/>
<path d="M307.105 59.4605L305.133 53.288H290.48L288.507 59.4605H278.645L292.058 20.1811H303.555L316.968 59.4605H307.105ZM293.185 44.871H302.428L297.806 30.4499L293.185 44.871Z" fill="white"/>
<path d="M352.343 59.4605L344.904 46.5544H340.62V59.4605H331.603V20.1811H347.383C351.14 20.1811 354.334 21.4904 356.964 24.109C359.594 26.7277 360.909 29.9074 360.909 33.6483C360.909 36.0425 360.233 38.2683 358.88 40.3258C357.565 42.3459 355.818 43.9171 353.639 45.0394L362.036 59.4605H352.343ZM340.62 28.5981V38.6985H347.383C348.623 38.6985 349.675 38.2122 350.539 37.2396C351.441 36.267 351.892 35.0699 351.892 33.6483C351.892 32.2268 351.441 31.0297 350.539 30.0571C349.675 29.0844 348.623 28.5981 347.383 28.5981H340.62Z" fill="white"/>
<path d="M416.998 20.1811V59.4605H407.981V36.6223L397.78 53.288H396.766L386.565 36.6223V59.4605H377.548V20.1811H386.565L397.273 37.6324L407.981 20.1811H416.998Z" fill="white"/>
<path d="M45.4284 4.07128L14.3812 21.6698C11.6306 23.2291 9.92513 26.16 9.92513 29.3174V65.76L5.19071 63.0264C1.98049 61.1727 0 57.7468 0 54.0363V24.934C0 21.2234 1.98049 17.7975 5.19071 15.9438L30.4064 1.39268C33.6199 -0.464226 37.5776 -0.464226 40.7878 1.39268L45.4284 4.07128Z" fill="white"/>
<path d="M58.1341 11.4472L27.2133 29.039C24.4698 30.5967 22.7656 33.5308 22.7656 36.6917V73.2256L12.5469 67.3056V29.3305C12.5469 27.0991 13.7476 25.0297 15.6809 23.9286L47.9703 5.55957L58.1341 11.4472Z" fill="white"/>
<path d="M71.1647 24.8659V27.7293C71.1647 28.4517 70.8612 29.1449 70.3155 29.6113C69.9378 29.932 69.489 30.2494 68.995 30.528L40.0711 46.9767C37.7399 48.3015 34.8468 48.3015 32.5156 46.9767L25.9062 43.2192C25.6059 43.0475 25.4219 42.7301 25.4219 42.3835V36.6145C25.4219 34.3827 26.6262 32.3128 28.5603 31.2147L60.2868 13.1691H60.2933C60.6161 12.978 61.0133 12.978 61.3362 13.1659L65.9889 15.8609C69.1951 17.717 71.168 21.1473 71.168 24.8627L71.1647 24.8659Z" fill="white"/>
<path d="M71.168 33.3171V43.8529C71.168 44.6564 70.8063 45.4145 70.1831 45.9199C69.8344 46.2017 69.4307 46.4771 68.998 46.7233L40.0721 63.1749C37.7407 64.5032 34.8475 64.5032 32.5161 63.1749L26.2065 59.5885C25.7222 59.3131 25.4219 58.7947 25.4219 58.2343V46.9663C25.4219 46.5095 25.9127 46.2244 26.3066 46.4479L31.2406 49.2536C32.8003 50.1413 34.5472 50.5819 36.2941 50.5819C38.041 50.5819 39.788 50.1413 41.3476 49.2536L70.2703 32.802H70.2767C70.6739 32.572 71.168 32.8571 71.168 33.3171Z" fill="white"/>
<path d="M70.2693 49.0026C70.6675 48.7764 71.1627 49.0575 71.1627 49.5163V54.0399C71.1627 57.746 69.1849 61.1677 65.9705 63.0192L40.7472 77.5527C37.536 79.4074 33.5771 79.4074 30.3627 77.5527L25.2578 74.6124C25.2869 74.5058 25.3031 74.3927 25.3031 74.2764V63.1323C25.3031 62.6767 25.7952 62.3923 26.1901 62.6153L31.1363 65.4134C32.6998 66.2988 34.4511 66.7414 36.2024 66.7414C37.9536 66.7414 39.7049 66.2988 41.2684 65.4134L70.2628 49.0058C70.2628 49.0058 70.2661 49.0058 70.2693 49.0026Z" fill="white"/>
</svg>
